<svg width="19" height="24" viewBox="0 0 19 24" fill="none" xmlns="http://www.w3.org/2000/svg">
<path d="M9.5 14C8.60999 14 7.73996 13.7361 6.99994 13.2416C6.25991 12.7471 5.68314 12.0443 5.34254 11.2221C5.00195 10.3998 4.91283 9.49501 5.08647 8.6221C5.2601 7.74918 5.68869 6.94736 6.31802 6.31802C6.94736 5.68869 7.74918 5.2601 8.6221 5.08647C9.49501 4.91283 10.3998 5.00195 11.2221 5.34254C12.0443 5.68314 12.7471 6.25991 13.2416 6.99994C13.7361 7.73996 14 8.60999 14 9.5C13.9986 10.693 13.524 11.8368 12.6804 12.6804C11.8368 13.524 10.693 13.9986 9.5 14ZM9.5 6.8C8.96599 6.8 8.44397 6.95835 7.99996 7.25503C7.55595 7.55171 7.20988 7.9734 7.00553 8.46676C6.80117 8.96012 6.7477 9.503 6.85188 10.0267C6.95606 10.5505 7.21321 11.0316 7.59081 11.4092C7.96841 11.7868 8.44951 12.0439 8.97326 12.1481C9.49701 12.2523 10.0399 12.1988 10.5332 11.9945C11.0266 11.7901 11.4483 11.4441 11.745 11C12.0416 10.556 12.2 10.034 12.2 9.5C12.1993 8.78414 11.9146 8.0978 11.4084 7.5916C10.9022 7.08541 10.2159 6.80072 9.5 6.8Z" fill="black"/>
<path d="M9.5 24L2.21437 15.4723C2.11314 15.3442 2.01295 15.2154 1.91383 15.0857C0.669311 13.4587 -0.00300648 11.4713 1.0107e-05 9.42857C1.0107e-05 6.92796 1.0009 4.52976 2.78249 2.76156C4.56409 0.993365 6.98045 0 9.5 0C12.0196 0 14.4359 0.993365 16.2175 2.76156C17.9991 4.52976 19 6.92796 19 9.42857C19.003 11.4704 18.331 13.4568 17.087 15.0831L17.0862 15.0857C17.0862 15.0857 16.8271 15.4234 16.7882 15.4689L9.5 24ZM3.29219 14.0529C3.29392 14.0529 3.49428 14.3169 3.54005 14.3734L9.5 21.3497L15.4677 14.364C15.5057 14.3169 15.7078 14.0511 15.7087 14.0503C16.7253 12.721 17.2747 11.0975 17.2727 9.42857C17.2727 7.38262 16.4538 5.42046 14.9961 3.97375C13.5385 2.52704 11.5615 1.71429 9.5 1.71429C7.43855 1.71429 5.46153 2.52704 4.00386 3.97375C2.54619 5.42046 1.72728 7.38262 1.72728 9.42857C1.72547 11.0985 2.2755 12.7229 3.29305 14.0529H3.29219Z" fill="black"/>
</svg>
