<svg width="19" height="24" viewBox="0 0 19 24" fill="none" xmlns="http://www.w3.org/2000/svg">
<path d="M9.5 24L2.21437 15.4723C2.11314 15.3442 2.01295 15.2154 1.91383 15.0857C0.669311 13.4587 -0.00300648 11.4713 1.0107e-05 9.42857C1.0107e-05 6.92796 1.0009 4.52977 2.78249 2.76156C4.56409 0.993365 6.98045 0 9.5 0C12.0196 0 14.4359 0.993365 16.2175 2.76156C17.9991 4.52977 19 6.92796 19 9.42857C19.003 11.4704 18.331 13.4568 17.087 15.0831L17.0862 15.0857C17.0862 15.0857 16.8271 15.4234 16.7882 15.4689L9.5 24ZM3.29219 14.0529C3.29392 14.0529 3.49428 14.3169 3.54005 14.3734L9.5 21.3497L15.4677 14.364C15.5057 14.3169 15.7078 14.0511 15.7087 14.0503C16.7253 12.721 17.2747 11.0975 17.2727 9.42857C17.2727 7.38262 16.4538 5.42046 14.9961 3.97375C13.5385 2.52704 11.5615 1.71429 9.5 1.71429C7.43855 1.71429 5.46153 2.52704 4.00386 3.97375C2.54619 5.42046 1.72728 7.38262 1.72728 9.42857C1.72547 11.0985 2.2755 12.7229 3.29305 14.0529H3.29219Z" fill="black"/>
</svg>
