<svg width="399" height="147" viewBox="0 0 399 147" fill="none" xmlns="http://www.w3.org/2000/svg">
<path d="M21 56.8155V5.25C21 3.85761 21.5531 2.52226 22.5377 1.53769C23.5223 0.553123 24.8576 0 26.25 0C27.6424 0 28.9777 0.553123 29.9623 1.53769C30.9469 2.52226 31.5 3.85761 31.5 5.25V56.8155C34.5721 55.7294 37.2317 53.7171 39.1122 51.0562C40.9928 48.3952 42.0017 45.2164 42 41.958V5.25C42 3.85761 42.5531 2.52226 43.5377 1.53769C44.5223 0.553123 45.8576 0 47.25 0C48.6424 0 49.9777 0.553123 50.9623 1.53769C51.9469 2.52226 52.5 3.85761 52.5 5.25V41.958C52.5012 48.0094 50.4116 53.8754 46.5849 58.5632C42.7581 63.251 37.4292 66.4727 31.5 67.683V141.75C31.5 143.142 30.9469 144.478 29.9623 145.462C28.9777 146.447 27.6424 147 26.25 147C24.8576 147 23.5223 146.447 22.5377 145.462C21.5531 144.478 21 143.142 21 141.75V67.683C15.0708 66.4727 9.74192 63.251 5.91514 58.5632C2.08836 53.8754 -0.00123454 48.0094 5.47199e-07 41.958V5.25C5.47199e-07 3.85761 0.553125 2.52226 1.53769 1.53769C2.52226 0.553123 3.85761 0 5.25 0C6.64239 0 7.97774 0.553123 8.96231 1.53769C9.94688 2.52226 10.5 3.85761 10.5 5.25V41.958C10.4983 45.2164 11.5072 48.3952 13.3878 51.0562C15.2683 53.7171 17.9279 55.7294 21 56.8155ZM89.25 83.4225C74.3505 80.0835 63 62.811 63 42C63 18.795 77.1015 0 94.5 0C111.898 0 126 18.795 126 42C126 62.811 114.649 80.0835 99.75 83.4225V141.75C99.75 143.142 99.1969 144.478 98.2123 145.462C97.2277 146.447 95.8924 147 94.5 147C93.1076 147 91.7723 146.447 90.7877 145.462C89.8031 144.478 89.25 143.142 89.25 141.75V83.4225ZM94.5 73.5C105.336 73.5 115.5 59.955 115.5 42C115.5 24.045 105.336 10.5 94.5 10.5C83.664 10.5 73.5 24.045 73.5 42C73.5 59.955 83.664 73.5 94.5 73.5Z" fill="#248B00"/>
<path d="M142.273 147V53.9091H198.455V63.9091H153.545V95.3636H195.545V105.364H153.545V137H199.182V147H142.273ZM247.5 147H218.773V53.9091H248.773C257.803 53.9091 265.53 55.7727 271.955 59.5C278.379 63.197 283.303 68.5151 286.727 75.4545C290.152 82.3636 291.864 90.6364 291.864 100.273C291.864 109.97 290.136 118.318 286.682 125.318C283.227 132.288 278.197 137.652 271.591 141.409C264.985 145.136 256.955 147 247.5 147ZM230.045 137H246.773C254.47 137 260.848 135.515 265.909 132.545C270.97 129.576 274.742 125.348 277.227 119.864C279.712 114.379 280.955 107.848 280.955 100.273C280.955 92.7576 279.727 86.2879 277.273 80.8636C274.818 75.4091 271.152 71.2273 266.273 68.3182C261.394 65.3788 255.318 63.9091 248.045 63.9091H230.045V137ZM310.216 147H298.398L332.58 53.9091H344.216L378.398 147H366.58L338.761 68.6364H338.034L310.216 147ZM314.58 110.636H362.216V120.636H314.58V110.636Z" fill="#248B00"/>
</svg>
