<svg width="75" height="75" viewBox="0 0 75 75" fill="none" xmlns="http://www.w3.org/2000/svg">
<path d="M75 37.4625C75 16.7812 58.2 0 37.5 0C16.8 0 0 16.7812 0 37.4625C0 48.8531 5.175 59.1187 13.275 66.0094C13.35 66.0844 13.425 66.0844 13.425 66.1594C14.1 66.6844 14.775 67.2094 15.525 67.7344C15.9 67.9594 16.2 68.2547 16.575 68.5547C22.7722 72.7564 30.0877 75.0017 37.575 75C45.0623 75.0017 52.3778 72.7564 58.575 68.5547C58.95 68.3297 59.25 68.0344 59.625 67.8047C60.3 67.2844 61.05 66.7594 61.725 66.2344C61.8 66.1594 61.875 66.1594 61.875 66.0844C69.825 59.1141 75 48.8531 75 37.4625ZM37.5 70.2797C30.45 70.2797 24 68.0297 18.675 64.2844C18.75 63.6844 18.9 63.0891 19.05 62.4891C19.4969 60.863 20.1523 59.3016 21 57.8438C21.825 56.4188 22.8 55.1437 24 54.0187C25.125 52.8937 26.475 51.8484 27.825 51.0234C29.25 50.1984 30.75 49.5984 32.4 49.1484C34.0628 48.7002 35.7778 48.4748 37.5 48.4781C42.6124 48.4419 47.537 50.403 51.225 53.9438C52.95 55.6688 54.3 57.6938 55.275 60.0141C55.8 61.3641 56.175 62.7891 56.4 64.2844C50.8649 68.1757 44.2661 70.269 37.5 70.2797ZM26.025 35.5922C25.3642 34.0792 25.0318 32.4431 25.05 30.7922C25.05 29.1469 25.35 27.4969 26.025 25.9969C26.7 24.4969 27.6 23.1516 28.725 22.0266C29.85 20.9016 31.2 20.0063 32.7 19.3313C34.2 18.6562 35.85 18.3562 37.5 18.3562C39.225 18.3562 40.8 18.6562 42.3 19.3313C43.8 20.0063 45.15 20.9062 46.275 22.0266C47.4 23.1516 48.3 24.5016 48.975 25.9969C49.65 27.4969 49.95 29.1469 49.95 30.7922C49.95 32.5172 49.65 34.0922 48.975 35.5875C48.3236 37.0653 47.4087 38.4122 46.275 39.5625C45.1244 40.6945 43.7774 41.6078 42.3 42.2578C39.2008 43.5315 35.7242 43.5315 32.625 42.2578C31.1476 41.6078 29.8006 40.6945 28.65 39.5625C27.5148 38.429 26.6217 37.0766 26.025 35.5875V35.5922ZM60.825 60.4641C60.825 60.3141 60.75 60.2391 60.75 60.0891C60.0124 57.7426 58.9251 55.5207 57.525 53.4984C56.1235 51.4612 54.4012 49.6644 52.425 48.1781C50.9157 47.0427 49.2798 46.0863 47.55 45.3281C48.3369 44.809 49.0661 44.2071 49.725 43.5328C50.8432 42.4289 51.8251 41.1951 52.65 39.8578C54.3111 37.1288 55.1689 33.9867 55.125 30.7922C55.1482 28.4274 54.6888 26.0828 53.775 23.9016C52.8728 21.7999 51.5741 19.8917 49.95 18.2812C48.3283 16.6876 46.4197 15.4153 44.325 14.5312C42.1402 13.619 39.7925 13.1613 37.425 13.1859C35.0572 13.1628 32.7095 13.6221 30.525 14.5359C28.4121 15.4181 26.499 16.7174 24.9 18.3562C23.3064 19.9762 22.034 21.8832 21.15 23.9766C20.2362 26.1578 19.7768 28.5024 19.8 30.8672C19.8 32.5172 20.025 34.0922 20.475 35.5875C20.925 37.1625 21.525 38.5875 22.35 39.9328C23.1 41.2828 24.15 42.4828 25.275 43.6078C25.95 44.2828 26.7 44.8781 27.525 45.4031C25.7899 46.1815 24.1534 47.1634 22.65 48.3281C20.7 49.8281 18.975 51.6234 17.55 53.5734C16.1356 55.5873 15.0472 57.8115 14.325 60.1641C14.25 60.3141 14.25 60.4641 14.25 60.5391C8.325 54.5438 4.65 46.4531 4.65 37.4625C4.65 19.4062 19.425 4.64531 37.5 4.64531C55.575 4.64531 70.35 19.4062 70.35 37.4625C70.3402 46.0873 66.9156 54.3573 60.825 60.4641Z" fill="#248B00"/>
</svg>
